<?xml version="1.0" encoding="utf-8"?>
<!-- Generator: Adobe Illustrator 23.0.1, SVG Export Plug-In . SVG Version: 6.00 Build 0)  -->
<svg version="1.1" id="Layer_1" xmlns="http://www.w3.org/2000/svg" xmlns:xlink="http://www.w3.org/1999/xlink" x="0px" y="0px"
	 viewBox="0 0 600 600" style="enable-background:new 0 0 600 600;" xml:space="preserve">
<style type="text/css">
	.st0{fill:#D1ECE8;}
	.st1{fill:#B1B4C4;}
	.st2{fill:#E4E7F2;}
	.st3{fill:#D6D8E5;}
	.st4{fill:#1E212D;}
	.st5{opacity:0.5;fill:url(#SVGID_1_);enable-background:new    ;}
	.st6{opacity:0.4;fill:#D6D8E5;enable-background:new    ;}
	.st7{fill:#2B303F;}
	.st8{fill:#C3C6D1;}
	.st9{fill:#616E84;}
	.st10{fill:#757B89;}
	.st11{fill:#20232D;}
	.st12{opacity:0.5;fill:url(#SVGID_2_);enable-background:new    ;}
	.st13{opacity:0.1;fill:#FFFFFF;enable-background:new    ;}
	.st14{opacity:0.5;fill:url(#SVGID_3_);enable-background:new    ;}
	.st15{fill:#696F7C;}
	.st16{opacity:0.1;enable-background:new    ;}
	.st17{opacity:0.3;fill:url(#SVGID_4_);enable-background:new    ;}
	.st18{fill:#1F232D;}
	.st19{opacity:0.3;fill:url(#SVGID_5_);enable-background:new    ;}
</style>
<g transform="translate(300,300)">
	<path class="st0" d="M245.4-122.7c46.8,50.2,44.9,147.6,11.9,216.5c-32.8,68.8-96.7,109.1-159.1,131.3
		c-62.5,22-123.7,25.8-192.5,7.3c-68.8-18.6-145.2-59.4-173-126.8c-27.9-67.5-7.1-161.7,46.8-213.5c54-51.8,141.2-61.2,232.5-64.5
		C103.2-175.7,198.6-172.9,245.4-122.7z"/>
</g>
<g id="Слой_1-2">
	<g id="Laptop">
		<path class="st1" d="M475.2,369.7L247,238c-3.2-1.9-5.8-6.8-5.8-11.1V50.4c0-4.3,2.6-6.2,5.8-4.4l228.2,131.8
			c3.2,1.9,5.8,6.8,5.8,11.1v176.5C481,369.6,478.4,371.6,475.2,369.7z"/>
		<polygon class="st1" points="476.4,371.5 478.9,370.1 477.8,362.6 		"/>
		<path class="st1" d="M240.8,47.1l2.5-1.4l3.6,2c0,0-3.8,0.6-3.9,0.5C242.9,48.2,240.8,47.1,240.8,47.1z"/>
		<path class="st2" d="M473.1,370.9L244.9,239.2c-3.2-1.9-5.8-6.8-5.8-11.1V51.6c0-4.3,2.6-6.2,5.8-4.4L473.1,179
			c3.2,1.8,5.8,6.8,5.8,11.1v176.5C478.9,370.8,476.3,372.8,473.1,370.9z"/>
		<path class="st3" d="M472.7,371.2L244.5,239.4c-3.2-1.9-5.8-6.8-5.8-11.1V51.8c0-4.3,2.6-6.2,5.8-4.4l228.2,131.8
			c3.2,1.8,5.8,6.8,5.8,11.1v176.5C478.5,371,475.9,373,472.7,371.2z"/>
		<path class="st4" d="M475.4,360.4l-233.7-135l0.1-172.9c0-1.8,1.2-2.5,2.8-1.6l228.2,131.8c1.6,1.1,2.7,2.9,2.8,4.8L475.4,360.4z"
			/>
		
			<linearGradient id="SVGID_1_" gradientUnits="userSpaceOnUse" x1="-112.4368" y1="2593.4351" x2="-112.4368" y2="2440.8252" gradientTransform="matrix(0.87 0.5 0 1.15 456.27 -2643.5901)">
			<stop  offset="0.21" style="stop-color:#FFFFFF;stop-opacity:0"/>
			<stop  offset="1" style="stop-color:#FFFFFF;stop-opacity:0.2"/>
		</linearGradient>
		<path class="st5" d="M475.3,360.4l-233.8-135l0.1-173c0-1.8,1.2-2.5,2.8-1.6l228.2,131.8c1.6,1.1,2.7,2.9,2.8,4.8L475.3,360.4z"/>
		<path class="st6" d="M300.7,473.7L72.4,342c-3.2-1.8-2.8-5.1,0.9-7.2l152.9-88.3c3.7-2.1,9.3-2.4,12.5-0.5l228.2,131.8
			c3.2,1.9,2.8,5.1-0.9,7.2l-152.9,88.3C309.4,475.3,303.8,475.6,300.7,473.7z"/>
		<path class="st1" d="M305.6,470.7L77.4,339c-3.2-1.9-2.8-5.1,0.9-7.2l152.9-88.3c3.7-2.1,9.3-2.4,12.5-0.5l228.2,131.8
			c3.2,1.8,2.8,5.1-0.9,7.2l-152.9,88.3C314.4,472.4,308.8,472.6,305.6,470.7z"/>
		<polygon class="st1" points="75.2,336 75.2,331.7 80.1,333.7 		"/>
		<polygon class="st1" points="474,378 474,373.8 470.4,375 472.8,378.5 		"/>
		<path class="st2" d="M305.6,467.1L77.4,335.4c-3.2-1.9-2.8-5.1,0.9-7.2l152.9-88.3c3.7-2.1,9.3-2.4,12.5-0.5l228.2,131.8
			c3.2,1.9,2.8,5.1-0.9,7.2l-152.9,88.3C314.4,468.7,308.8,469,305.6,467.1z"/>
		<path class="st3" d="M305.6,466.6L77.4,334.8c-3.2-1.9-2.8-5.1,0.9-7.2l152.9-88.3c3.7-2.1,9.3-2.4,12.5-0.5l228.2,131.8
			c3.2,1.9,2.8,5.1-0.9,7.2L318.1,466C314.4,468.2,308.8,468.4,305.6,466.6z"/>
		<path class="st7" d="M226.9,269.1l-10.6-6.1c-0.9-0.5-0.8-1.4,0.2-1.9l10.1-5.9c1-0.6,2.3-0.6,3.4-0.1l10.6,6.1
			c0.9,0.5,0.8,1.4-0.2,2l-10.1,5.9C229.2,269.6,228,269.6,226.9,269.1z"/>
		<path class="st7" d="M242,277.8l-10.6-6.1c-0.9-0.5-0.8-1.4,0.2-2l10.1-5.9c1-0.6,2.3-0.6,3.4-0.1l10.6,6.1
			c0.9,0.5,0.8,1.4-0.2,1.9l-10.1,5.9C244.3,278.2,243.1,278.3,242,277.8z"/>
		<path class="st7" d="M257.2,286.6l-10.6-6.1c-0.9-0.5-0.8-1.4,0.2-1.9l10.1-5.9c1-0.6,2.3-0.6,3.4-0.1l10.6,6.1
			c0.9,0.5,0.8,1.4-0.2,2l-10.1,5.9C259.5,287,258.3,287.1,257.2,286.6z"/>
		<path class="st7" d="M272.1,295.2l-10.6-6.1c-0.9-0.5-0.8-1.4,0.2-1.9l10.1-5.9c1-0.6,2.3-0.6,3.4-0.1l10.6,6.1
			c0.9,0.5,0.8,1.4-0.2,2l-10.1,5.9C274.4,295.6,273.1,295.7,272.1,295.2z"/>
		<path class="st7" d="M287.1,303.8l-10.6-6.1c-0.9-0.5-0.8-1.4,0.2-1.9l10.1-5.9c1-0.6,2.3-0.6,3.4-0.1l10.6,6.1
			c0.9,0.5,0.8,1.4-0.2,2l-10.1,5.9C289.4,304.3,288.2,304.4,287.1,303.8z"/>
		<path class="st7" d="M302.1,312.5l-10.6-6.1c-0.9-0.5-0.8-1.4,0.2-2l10.1-5.9c1-0.6,2.3-0.6,3.4-0.1l10.6,6.1
			c0.9,0.5,0.8,1.4-0.2,2l-10.1,5.9C304.5,313,303.2,313,302.1,312.5z"/>
		<path class="st7" d="M317.2,321.2l-10.6-6.1c-0.9-0.5-0.8-1.4,0.2-2l10.1-5.8c1-0.6,2.3-0.6,3.4-0.1l10.6,6.1
			c0.9,0.5,0.8,1.4-0.2,2l-10.1,5.9C319.5,321.7,318.3,321.7,317.2,321.2z"/>
		<path class="st7" d="M332.2,329.9l-10.6-6.1c-0.9-0.5-0.8-1.4,0.2-2L332,316c1-0.6,2.3-0.6,3.4-0.1L346,322c0.9,0.5,0.8,1.4-0.2,2
			l-10.1,5.8C334.6,330.4,333.3,330.4,332.2,329.9z"/>
		<path class="st7" d="M347.3,338.6l-10.6-6.1c-0.9-0.5-0.8-1.4,0.2-2l10.1-5.9c1-0.6,2.3-0.6,3.4-0.1l10.6,6.1
			c0.9,0.5,0.8,1.4-0.2,2l-10.2,5.8C349.6,339,348.3,339.1,347.3,338.6z"/>
		<path class="st7" d="M362.3,347.3l-10.6-6.2c-0.9-0.5-0.8-1.4,0.2-2l10.1-5.9c1-0.6,2.3-0.6,3.4-0.1l10.6,6.1
			c0.9,0.5,0.8,1.4-0.2,2l-10.2,5.8C364.6,347.7,363.4,347.8,362.3,347.3z"/>
		<path class="st7" d="M377.3,355.9l-10.6-6.1c-0.9-0.5-0.8-1.4,0.2-2l10.1-5.9c1-0.6,2.3-0.6,3.4-0.1l10.6,6.1
			c0.9,0.5,0.8,1.4-0.2,2l-10.1,5.9C379.7,356.4,378.4,356.5,377.3,355.9z"/>
		<path class="st7" d="M392.4,364.6l-10.6-6.1c-0.9-0.5-0.8-1.4,0.2-2l10.1-5.9c1-0.6,2.3-0.6,3.4-0.1l10.6,6.1
			c0.9,0.5,0.8,1.4-0.2,2l-10.1,5.9C394.7,365.1,393.5,365.1,392.4,364.6z"/>
		<path class="st7" d="M407.4,373.3l-10.6-6.1c-0.9-0.5-0.8-1.4,0.2-2l10.1-5.9c1-0.6,2.3-0.6,3.4-0.1l10.6,6.1
			c0.9,0.5,0.8,1.4-0.2,2l-10.1,5.9C409.8,373.7,408.5,373.8,407.4,373.3z"/>
		<path class="st7" d="M429.7,386.2l-17.9-10.3c-0.9-0.5-0.8-1.4,0.2-2l10.1-5.9c1-0.6,2.3-0.6,3.4-0.1l17.9,10.3
			c0.9,0.5,0.8,1.4-0.2,2l-10.1,5.9C432.1,386.6,430.8,386.7,429.7,386.2z"/>
		<path class="st7" d="M234.7,290.4l-10.6-6.1c-0.9-0.5-0.8-1.4,0.2-2l10.1-5.9c1-0.6,2.3-0.6,3.4-0.1l10.6,6.1
			c0.9,0.5,0.8,1.4-0.2,2l-10.1,5.8C237,290.9,235.7,290.9,234.7,290.4z"/>
		<path class="st7" d="M249.7,299.1l-10.6-6.1c-0.9-0.5-0.8-1.4,0.2-1.9l10.1-5.9c1-0.6,2.3-0.6,3.4-0.1l10.6,6.1
			c0.9,0.5,0.8,1.4-0.2,2l-10.1,5.9C252.1,299.5,250.8,299.6,249.7,299.1z"/>
		<path class="st7" d="M264.8,307.8l-10.6-6.1c-0.9-0.5-0.8-1.4,0.2-2l10.1-5.9c1-0.6,2.3-0.6,3.4-0.1l10.6,6.1
			c0.9,0.5,0.8,1.4-0.2,2l-10.1,5.9C267.1,308.2,265.9,308.3,264.8,307.8z"/>
		<path class="st7" d="M279.9,316.5l-10.6-6.1c-0.9-0.5-0.8-1.4,0.2-2l10.2-5.8c1-0.6,2.3-0.6,3.4-0.1l10.6,6.1
			c0.9,0.5,0.8,1.4-0.2,2l-10.1,5.9C282.2,317,281,317,279.9,316.5z"/>
		<path class="st7" d="M294.8,325.1l-10.6-6.1c-0.9-0.5-0.8-1.4,0.2-2l10.1-5.9c1-0.6,2.3-0.6,3.4-0.1l10.6,6.1
			c0.9,0.5,0.8,1.4-0.2,2l-10.1,5.9C297.1,325.6,295.9,325.6,294.8,325.1z"/>
		<path class="st7" d="M309.9,333.8l-10.6-6.1c-0.9-0.5-0.8-1.4,0.2-2l10.2-5.9c1-0.6,2.3-0.6,3.4-0.1l10.6,6.1
			c0.9,0.5,0.8,1.4-0.2,2l-10.1,5.9C312.2,334.3,311,334.3,309.9,333.8z"/>
		<path class="st7" d="M324.9,342.5l-10.6-6.1c-0.9-0.5-0.8-1.4,0.2-2l10.1-5.9c1-0.6,2.3-0.6,3.4-0.1l10.6,6.1
			c0.9,0.5,0.8,1.4-0.2,2l-10.1,5.9C327.3,342.9,326,343,324.9,342.5z"/>
		<path class="st7" d="M340,351.2l-10.6-6.1c-0.9-0.5-0.8-1.4,0.2-2l10.1-5.8c1-0.6,2.3-0.6,3.4-0.1l10.6,6.1c0.9,0.5,0.8,1.4-0.2,2
			l-10.1,5.9C342.3,351.7,341.1,351.7,340,351.2z"/>
		<path class="st7" d="M355.1,359.9l-10.6-6.1c-0.9-0.5-0.8-1.4,0.2-2l10.1-5.9c1-0.6,2.3-0.6,3.4-0.1l10.6,6.1
			c0.9,0.5,0.8,1.4-0.2,2l-10.1,5.9C357.4,360.4,356.2,360.4,355.1,359.9z"/>
		<path class="st7" d="M370.1,368.6l-10.6-6.1c-0.9-0.5-0.8-1.4,0.2-2l10.1-5.9c1-0.6,2.3-0.6,3.4-0.1l10.6,6.1
			c0.9,0.5,0.8,1.4-0.2,2l-10.1,5.9C372.5,369,371.2,369.1,370.1,368.6z"/>
		<path class="st7" d="M385.2,377.3l-10.6-6.1c-0.9-0.5-0.8-1.4,0.2-2l10.1-5.9c1-0.6,2.3-0.6,3.4-0.1l10.6,6.1
			c0.9,0.5,0.8,1.4-0.2,2l-10.1,5.9C387.6,377.7,386.3,377.8,385.2,377.3z"/>
		<path class="st7" d="M400.3,386l-10.6-6.1c-0.9-0.5-0.8-1.4,0.2-2L400,372c1-0.6,2.3-0.6,3.4-0.1L414,378c0.9,0.5,0.8,1.4-0.2,2
			l-10.2,5.9C402.6,386.5,401.4,386.5,400.3,386z"/>
		<path class="st7" d="M219.6,281.7l-17.9-10.3c-0.9-0.5-0.8-1.4,0.2-2l10.1-5.9c1-0.6,2.3-0.6,3.4-0.1l17.9,10.3
			c0.9,0.5,0.8,1.4-0.2,2l-10.1,5.9C221.9,282.1,220.7,282.2,219.6,281.7z"/>
		<path class="st7" d="M429,386.7l-10.6-6.1c-1-0.5-2.2-0.5-3.1,0l-10.7,6.2c-0.5,0.2-0.7,0.8-0.5,1.3c0.1,0.2,0.3,0.4,0.5,0.5
			l0.8,0.5c0.5,0.2,0.7,0.7,0.5,1.1c-0.1,0.3-0.3,0.5-0.5,0.5l-11.4,6.5c-0.9,0.5-0.9,1.3,0,1.8l6.8,3.9c1,0.5,2.2,0.5,3.1,0
			l10.6-6.1l2.2-1.3l1.6-0.9l1.6-0.9l9.1-5.3C429.8,388.1,429.9,387.3,429,386.7z"/>
		<path class="st7" d="M168.7,302.8l-10.6-6.1c-0.9-0.5-0.8-1.4,0.2-2l10.1-5.9c1-0.6,2.3-0.6,3.4-0.1l10.6,6.1
			c0.9,0.5,0.8,1.4-0.2,2l-10.1,5.9C171,303.3,169.7,303.3,168.7,302.8z"/>
		<path class="st7" d="M183.7,311.5l-10.6-6.2c-0.9-0.5-0.8-1.4,0.2-2l10.1-5.9c1-0.6,2.3-0.6,3.4-0.1l10.6,6.1
			c0.9,0.5,0.8,1.4-0.2,2l-10.1,5.9C186,311.9,184.7,312,183.7,311.5z"/>
		<path class="st7" d="M198.7,320.1L188,314c-0.9-0.5-0.8-1.4,0.2-2l10.1-5.9c1-0.6,2.3-0.6,3.4-0.1l10.6,6.1c0.9,0.5,0.8,1.4-0.2,2
			L202,320C201,320.6,199.7,320.6,198.7,320.1z"/>
		<path class="st7" d="M326.4,393.9l-10.6-6.1c-0.9-0.5-0.8-1.4,0.2-2l10.1-5.9c1-0.6,2.3-0.6,3.4-0.1l10.6,6.1
			c0.9,0.5,0.8,1.4-0.2,2l-10.1,5.9C328.7,394.3,327.5,394.4,326.4,393.9z"/>
		<path class="st7" d="M341.4,402.5l-10.6-6.1c-0.9-0.5-0.8-1.4,0.2-2l10.1-5.9c1-0.6,2.3-0.6,3.4-0.1l10.6,6.1
			c0.9,0.5,0.8,1.4-0.2,2l-10.1,5.9C343.7,402.9,342.5,403,341.4,402.5z"/>
		<path class="st7" d="M356.4,411.2l-10.6-6.1c-0.9-0.5-0.8-1.4,0.2-2l10.1-5.8c1-0.6,2.3-0.6,3.4-0.1l10.6,6.1
			c0.9,0.5,0.8,1.4-0.2,2l-10.1,5.9C358.7,411.7,357.5,411.7,356.4,411.2z"/>
		<path class="st7" d="M371.4,419.9l-10.6-6.1c-0.9-0.5-0.8-1.4,0.2-2l10.1-5.9c1-0.6,2.3-0.6,3.4-0.1l10.6,6.1
			c0.9,0.5,0.8,1.4-0.2,2l-10.1,5.9C373.7,420.3,372.5,420.3,371.4,419.9z"/>
		<path class="st7" d="M217.5,331l-14.5-8.4c-0.9-0.5-0.8-1.4,0.2-2l10.1-5.9c1-0.6,2.3-0.6,3.4-0.1l14.5,8.4c0.9,0.5,0.8,1.4-0.2,2
			l-10.1,5.9C219.9,331.5,218.6,331.5,217.5,331z"/>
		<path class="st7" d="M311.4,385.2l-14.5-8.4c-0.9-0.5-0.8-1.4,0.2-2l10.1-5.9c1-0.6,2.3-0.6,3.4-0.1l14.5,8.4
			c0.9,0.5,0.8,1.4-0.2,2l-10.1,5.9C313.7,385.7,312.5,385.7,311.4,385.2z"/>
		<path class="st7" d="M292.5,374.3l-70.6-40.8c-0.9-0.5-0.8-1.4,0.2-2l10.1-5.9c1-0.6,2.3-0.6,3.4-0.1l70.6,40.8
			c0.9,0.5,0.8,1.4-0.2,2l-10.1,5.9C294.9,374.7,293.6,374.8,292.5,374.3z"/>
		<path class="st7" d="M224.2,301.2l-10.6-6.1c-0.9-0.5-0.8-1.4,0.2-2l10.1-5.8c1-0.6,2.3-0.6,3.4-0.1l10.6,6.1
			c0.9,0.5,0.8,1.4-0.2,2l-10.1,5.9C226.5,301.7,225.2,301.7,224.2,301.2z"/>
		<path class="st7" d="M239.2,309.9l-10.6-6.1c-0.9-0.5-0.8-1.4,0.2-2l10.1-5.9c1-0.6,2.3-0.6,3.4-0.1l10.6,6.1
			c0.9,0.5,0.8,1.4-0.2,2l-10.1,5.9C241.5,310.3,240.3,310.4,239.2,309.9z"/>
		<path class="st7" d="M254.2,318.5l-10.6-6.1c-0.9-0.5-0.8-1.4,0.2-2l10.1-5.9c1-0.6,2.3-0.6,3.4-0.1l10.6,6.1
			c0.9,0.5,0.8,1.4-0.2,2l-10.1,5.9C256.6,319,255.3,319,254.2,318.5z"/>
		<path class="st7" d="M269.2,327.2l-10.6-6.1c-0.9-0.5-0.8-1.4,0.2-2l10.1-5.8c1-0.6,2.3-0.6,3.4-0.1l10.6,6.1
			c0.9,0.5,0.8,1.4-0.2,2l-10.1,5.8C271.6,327.7,270.3,327.7,269.2,327.2z"/>
		<path class="st7" d="M284.3,335.9l-10.6-6.1c-0.9-0.5-0.8-1.4,0.2-2l10.1-5.9c1-0.6,2.3-0.6,3.4-0.1l10.6,6.1
			c0.9,0.5,0.8,1.4-0.2,2l-10.2,5.9C286.6,336.3,285.4,336.4,284.3,335.9z"/>
		<path class="st7" d="M299.3,344.6l-10.6-6.1c-0.9-0.5-0.8-1.4,0.2-2l10.1-5.9c1-0.6,2.3-0.6,3.4-0.1l10.6,6.1
			c0.9,0.5,0.8,1.4-0.2,2l-10.1,5.9C301.6,345,300.4,345,299.3,344.6z"/>
		<path class="st7" d="M314.3,353.2l-10.7-6.1c-0.9-0.5-0.8-1.4,0.2-2l10.2-5.8c1-0.6,2.3-0.6,3.4-0.1l10.6,6.1
			c0.9,0.5,0.8,1.4-0.2,2l-10.1,5.9C316.7,353.7,315.4,353.7,314.3,353.2z"/>
		<path class="st7" d="M329.3,361.9l-10.6-6.1c-0.9-0.5-0.8-1.4,0.2-2l10.1-5.9c1-0.6,2.3-0.6,3.4-0.1l10.6,6.1
			c0.9,0.5,0.8,1.4-0.2,2l-10.1,5.9C331.7,362.3,330.4,362.4,329.3,361.9z"/>
		<path class="st7" d="M344.4,370.6l-10.6-6.1c-0.9-0.5-0.8-1.4,0.2-2l10.1-5.9c1-0.6,2.3-0.6,3.4-0.1l10.6,6.1
			c0.9,0.5,0.8,1.4-0.2,2l-10.1,5.9C346.7,371.1,345.5,371.1,344.4,370.6z"/>
		<path class="st7" d="M359.4,379.3l-10.6-6.1c-0.9-0.5-0.8-1.4,0.2-2l10.1-5.9c1-0.6,2.3-0.6,3.4-0.1l10.6,6.1
			c0.9,0.5,0.8,1.4-0.2,2l-10.1,5.9C361.7,379.7,360.5,379.8,359.4,379.3z"/>
		<path class="st7" d="M374.4,387.9l-10.6-6.1c-0.9-0.5-0.8-1.4,0.2-2l10.1-5.9c1-0.6,2.3-0.6,3.4-0.1l10.6,6.1
			c0.9,0.5,0.8,1.4-0.2,2l-10.1,5.9C376.8,388.4,375.5,388.4,374.4,387.9z"/>
		<path class="st7" d="M389.4,396.6l-10.6-6.1c-0.9-0.5-0.8-1.4,0.2-2l10.1-5.9c1-0.6,2.3-0.6,3.4-0.1l10.6,6.1
			c0.9,0.5,0.8,1.4-0.2,2l-10.1,5.9C391.8,397,390.5,397.1,389.4,396.6z"/>
		<path class="st7" d="M209.1,292.5l-22-12.7c-0.9-0.5-0.8-1.4,0.2-2l10.1-5.9c1-0.6,2.3-0.6,3.4-0.1l22,12.7c0.9,0.5,0.8,1.4-0.2,2
			l-10.1,5.9C211.5,292.9,210.2,293,209.1,292.5z"/>
		<path class="st7" d="M202.1,305.3l-10.6-6.1c-0.9-0.5-0.8-1.4,0.2-2l10.1-5.9c1-0.6,2.3-0.6,3.4-0.1l10.6,6.1
			c0.9,0.5,0.8,1.4-0.2,2l-10.1,5.9C204.5,305.7,203.2,305.8,202.1,305.3z"/>
		<path class="st7" d="M217.2,314l-10.6-6.1c-0.9-0.5-0.8-1.4,0.2-2l10.1-5.9c1-0.6,2.3-0.6,3.4-0.1l10.6,6.1c0.9,0.5,0.8,1.4-0.2,2
			l-10.1,5.9C219.5,314.4,218.2,314.4,217.2,314z"/>
		<path class="st7" d="M232.2,322.6l-10.6-6.1c-0.9-0.5-0.8-1.4,0.2-2l10.1-5.9c1-0.6,2.3-0.6,3.4-0.1l10.6,6.1
			c0.9,0.5,0.8,1.4-0.2,2l-10.1,5.9C234.5,323.1,233.3,323.2,232.2,322.6z"/>
		<path class="st7" d="M247.2,331.3l-10.6-6.1c-0.9-0.5-0.8-1.4,0.2-2l10.1-5.9c1-0.6,2.3-0.6,3.4-0.1l10.6,6.1
			c0.9,0.5,0.8,1.4-0.2,2l-10.1,5.9C249.5,331.8,248.3,331.8,247.2,331.3z"/>
		<path class="st7" d="M262.2,340l-10.6-6.1c-0.9-0.5-0.8-1.4,0.2-2L262,326c1-0.6,2.3-0.6,3.4-0.1L276,332c0.9,0.5,0.8,1.4-0.2,2
			l-10.1,5.8C264.6,340.4,263.3,340.5,262.2,340z"/>
		<path class="st7" d="M277.2,348.7l-10.6-6.1c-0.9-0.5-0.8-1.4,0.2-2l10.1-5.9c1-0.6,2.3-0.6,3.4-0.1l10.6,6.1
			c0.9,0.5,0.8,1.4-0.2,2l-10.1,5.9C279.6,349.1,278.3,349.2,277.2,348.7z"/>
		<path class="st7" d="M292.3,357.3l-10.6-6.1c-0.9-0.5-0.8-1.4,0.2-2l10.1-5.9c1-0.6,2.3-0.6,3.4-0.1l10.6,6.1
			c0.9,0.5,0.8,1.4-0.2,2l-10.2,5.8C294.6,357.8,293.4,357.8,292.3,357.3z"/>
		<path class="st7" d="M307.3,366l-10.6-6.1c-0.9-0.5-0.8-1.4,0.2-2L307,352c1-0.6,2.3-0.6,3.4-0.1L321,358c0.9,0.5,0.8,1.4-0.2,2
			l-10.2,5.9C309.6,366.4,308.4,366.5,307.3,366z"/>
		<path class="st7" d="M322.3,374.7l-10.7-6.1c-0.9-0.5-0.8-1.4,0.2-2l10.1-5.9c1-0.6,2.3-0.6,3.4-0.1l10.6,6.1
			c0.9,0.5,0.8,1.4-0.2,2l-10.1,5.8C324.6,375.1,323.4,375.2,322.3,374.7z"/>
		<path class="st7" d="M337.3,383.4l-10.6-6.1c-0.9-0.5-0.8-1.4,0.2-2l10.1-5.9c1-0.6,2.3-0.6,3.4-0.1l10.6,6.1
			c0.9,0.5,0.8,1.4-0.2,2l-10.1,5.9C339.7,383.8,338.4,383.9,337.3,383.4z"/>
		<path class="st7" d="M352.4,392l-10.6-6.1c-0.9-0.5-0.8-1.4,0.2-2l10.1-5.9c1-0.6,2.3-0.6,3.4-0.1l10.6,6.1c0.9,0.5,0.8,1.4-0.2,2
			l-10.1,5.9C354.7,392.5,353.4,392.5,352.4,392z"/>
		<path class="st7" d="M386,411.4l-29.2-16.9c-0.9-0.5-0.8-1.4,0.2-2l10.1-5.9c1-0.6,2.3-0.6,3.4-0.1l29.2,16.9
			c0.9,0.5,0.8,1.4-0.2,2l-10.1,5.8C388.3,411.9,387.1,411.9,386,411.4z"/>
		<path class="st7" d="M187.1,296.6l-14.5-8.3c-0.9-0.5-0.8-1.4,0.2-2l10.1-5.9c1-0.6,2.3-0.6,3.4-0.1l14.5,8.4
			c0.9,0.5,0.8,1.4-0.2,2l-10.1,5.9C189.5,297.1,188.2,297.1,187.1,296.6z"/>
		<path class="st7" d="M444.8,377.5L231.5,254.3c-0.9-0.5-0.8-1.4,0.2-2l5.1-2.9c1-0.6,2.3-0.6,3.4-0.1l213.3,123.2
			c0.9,0.5,0.8,1.4-0.2,2l-5.1,2.9C447.1,377.9,445.9,378,444.8,377.5z"/>
		<path class="st1" d="M312.7,391.5c-0.3,0.7-0.8,1.2-1.5,1.5l-58.7,33.9c-2,1.1-4.4,1.2-6.5,0.3l-100.3-57.9
			c-0.4-0.2-0.8-0.6-1-1.1c-0.4-0.9,0.1-1.9,1.5-2.7l58.7-33.9c2-1.1,4.4-1.2,6.5-0.3l100.3,57.9
			C312.5,389.7,312.9,390.6,312.7,391.5z"/>
		<path class="st8" d="M312.7,391.5c-0.3,0.7-0.8,1.2-1.5,1.5l-58.7,33.9c-2,1.1-4.4,1.2-6.5,0.3l-100.3-57.9
			c-0.4-0.2-0.8-0.6-1-1.1c0.3-0.7,0.8-1.2,1.5-1.5l58.7-33.9c2-1.1,4.4-1.2,6.5-0.3l100.3,57.9C312.1,390.7,312.4,391,312.7,391.5z
			"/>
		<path class="st7" d="M461,368.1L247.7,244.9c-1-0.7-1.6-1.8-1.6-3v-2.5c0-1.2,0.7-1.7,1.6-1.2L461,361.4c1,0.7,1.6,1.8,1.6,3v2.5
			C462.7,368.1,461.9,368.6,461,368.1z"/>
	</g>
	<g id="Mobile">
		<path class="st6" d="M416.4,516.8L377,494c-3.3-1.9-2.9-5.3,0.9-7.5l95.1-54.9c3.9-2.2,9.7-2.5,13-0.5l39.4,22.7
			c3.3,1.9,2.9,5.3-0.9,7.5l-95.1,54.9C425.5,518.4,419.7,518.7,416.4,516.8z"/>
		<path class="st1" d="M421.4,513.8L382,491c-3.3-1.9-2.9-5.3,0.9-7.5l95.1-54.9c3.9-2.2,9.7-2.5,13-0.5l39.4,22.7
			c3.3,1.9,2.9,5.3-0.9,7.5l-95.1,54.9C430.5,515.5,424.7,515.7,421.4,513.8z"/>
		<polygon class="st1" points="379.8,487.7 379.8,484.1 384,485.7 		"/>
		<polygon class="st1" points="532.7,454 532.7,450.5 529.3,452.7 		"/>
		<path class="st9" d="M421.4,510.7L382,488c-3.3-1.9-2.9-5.3,0.9-7.5l95.1-54.9c3.9-2.2,9.7-2.5,13-0.5l39.4,22.7
			c3.3,1.9,2.9,5.3-0.9,7.5l-95.1,54.9C430.5,512.4,424.7,512.6,421.4,510.7z"/>
		<ellipse transform="matrix(0.866 -0.5 0.5 0.866 -194.2306 259.1146)" class="st10" cx="386.4" cy="492" rx="0.4" ry="0.7"/>
		<ellipse transform="matrix(0.866 -0.5 0.5 0.866 -194.5241 260.2084)" class="st10" cx="388.3" cy="493.1" rx="0.4" ry="0.7"/>
		<ellipse transform="matrix(0.866 -0.5 0.5 0.866 -194.8175 261.3096)" class="st10" cx="390.2" cy="494.2" rx="0.4" ry="0.7"/>
		<ellipse transform="matrix(0.866 -0.5 0.5 0.866 -195.1109 262.4061)" class="st10" cx="392.1" cy="495.3" rx="0.4" ry="0.7"/>
		
			<ellipse transform="matrix(0.867 -0.4983 0.4983 0.867 -197.8927 271.5674)" class="st10" cx="409.8" cy="506.5" rx="0.4" ry="0.7"/>
		<ellipse transform="matrix(0.866 -0.5 0.5 0.866 -197.9495 272.877)" class="st10" cx="410.2" cy="505.8" rx="0.4" ry="0.7"/>
		<ellipse transform="matrix(0.866 -0.5 0.5 0.866 -198.2406 273.9722)" class="st10" cx="412.1" cy="506.9" rx="0.4" ry="0.7"/>
		<ellipse transform="matrix(0.866 -0.5 0.5 0.866 -198.535 275.0697)" class="st10" cx="414" cy="508" rx="0.4" ry="0.7"/>
		<path class="st10" d="M402.8,502.3l-5.2-3c-0.4-0.3-0.6-0.7-0.6-1.1l0,0c0-0.4,0.3-0.6,0.6-0.5l5.2,3c0.4,0.3,0.6,0.7,0.6,1.1l0,0
			C403.4,502.3,403.2,502.5,402.8,502.3z"/>
		<path class="st10" d="M520.7,462.6l-4.8,2.8c-0.3,0.2-0.6,0-0.6-0.4l0,0c0-0.4,0.2-0.8,0.6-1.1l4.8-2.8c0.3-0.2,0.5,0,0.5,0.4l0,0
			C521.3,461.9,521.1,462.3,520.7,462.6z"/>
		<path class="st10" d="M513.3,466.9l-4.8,2.8c-0.3,0.2-0.5,0-0.5-0.4l0,0c0-0.4,0.2-0.8,0.5-1.1l4.8-2.8c0.3-0.2,0.6,0,0.6,0.4l0,0
			C513.9,466.2,513.7,466.6,513.3,466.9z"/>
		<path class="st11" d="M421.4,510.1L382,487.4c-3.3-1.9-2.9-5.3,0.9-7.5L478,425c3.9-2.2,9.7-2.5,13-0.5l39.4,22.7
			c3.3,1.9,2.9,5.3-0.9,7.5l-95.1,54.9C430.5,511.8,424.7,512.1,421.4,510.1z"/>
		<path class="st7" d="M526.2,448.1l-15.4-8.9l0,0c-2.1,1-4.5,1-6.6,0c-1.8-1-1.8-2.8,0-3.8l0,0l-15.4-8.9c-2.7-1.4-5.8-1.4-8.5,0
			L387.8,480c-2.3,1.4-2.3,3.5,0,4.9l37.3,21.5c2.7,1.4,5.8,1.4,8.5,0l92.6-53.5C528.5,451.6,528.5,449.5,526.2,448.1z"/>
		
			<linearGradient id="SVGID_2_" gradientUnits="userSpaceOnUse" x1="-1950.4296" y1="3538.2969" x2="-1950.4296" y2="3437.2371" gradientTransform="matrix(0.87 0.5 -1 0.58 5630.71 -574.9)">
			<stop  offset="0.21" style="stop-color:#FFFFFF;stop-opacity:0"/>
			<stop  offset="1" style="stop-color:#FFFFFF;stop-opacity:0.2"/>
		</linearGradient>
		<path class="st12" d="M526.2,448.1l-15.4-8.9l0,0c-2.1,1-4.5,1-6.6,0c-1.8-1-1.8-2.8,0-3.8l0,0l-15.4-8.9c-2.7-1.4-5.8-1.4-8.5,0
			L387.8,480c-2.3,1.4-2.3,3.5,0,4.9l37.3,21.5c2.7,1.4,5.8,1.4,8.5,0l92.6-53.5C528.5,451.6,528.5,449.5,526.2,448.1z"/>
		<ellipse class="st7" cx="506.5" cy="437.9" rx="1.8" ry="1"/>
		<path class="st13" d="M506,438.2c-0.3-0.2-0.3-0.4,0-0.6s0.7-0.2,1,0c0.2,0.1,0.3,0.2,0.2,0.4c0,0.1-0.1,0.2-0.2,0.2
			C506.7,438.4,506.3,438.4,506,438.2z"/>
	</g>
	<g id="Watch">
		<path class="st1" d="M88.7,268.2L78,262c-3.3-1.9-2.9-5.3,0.9-7.5l12.6-7.3c3.8-2.2,9.7-2.5,13-0.5l10.7,6.2
			c3.3,1.9,2.9,5.3-0.9,7.5l-12.6,7.3C97.9,269.9,92,270.1,88.7,268.2z"/>
		<path class="st1" d="M117.5,255.9c0-0.1,0-3.5,0-3.5l-3.6,2L117.5,255.9z"/>
		<polygon class="st1" points="149.4,231.4 149.4,229.9 147,230.6 		"/>
		<path class="st6" d="M90.9,269.1c-0.6-0.2-1.2-0.4-1.7-0.6l-7.4-6l1.9-1.9l-7-0.9c0,1.1-0.5,2-1.4,2.7L36,283.7
			c-3.7,2.1-4.7,6.1-0.9,8.3l0,0c3.3,2.3,9.1,2.1,12.8,0l41-21.7H89c1.4-0.8,4.5-0.7,4.5-0.7C92.6,269.5,91.8,269.3,90.9,269.1z
			 M73.1,271.6c0.4,0.1,0.6,0.5,0.4,0.9c-0.1,0.2-0.2,0.4-0.4,0.4c-0.7,0.4-1.6,0.4-2.3,0c-0.4-0.1-0.6-0.5-0.5-0.9
			c0.1-0.2,0.2-0.4,0.5-0.5C71.5,271.2,72.4,271.2,73.1,271.6z M69.5,273.7c0.4,0.1,0.6,0.5,0.4,0.9c-0.1,0.2-0.2,0.4-0.4,0.4
			c-0.7,0.4-1.6,0.4-2.3,0c-0.4-0.1-0.6-0.5-0.5-0.9c0.1-0.2,0.2-0.4,0.5-0.5C67.9,273.3,68.7,273.3,69.5,273.7L69.5,273.7z
			 M65.8,275.8c0.4,0.1,0.6,0.5,0.4,0.9c-0.1,0.2-0.2,0.4-0.4,0.4c-0.7,0.4-1.6,0.4-2.3,0c-0.4-0.1-0.6-0.5-0.4-0.9
			c0.1-0.2,0.2-0.4,0.4-0.4C64.2,275.4,65.1,275.4,65.8,275.8L65.8,275.8z M62.2,277.9c0.4,0.1,0.6,0.5,0.4,0.9
			c-0.1,0.2-0.2,0.4-0.4,0.4c-0.7,0.4-1.6,0.4-2.3,0c-0.4-0.1-0.6-0.5-0.4-0.9c0.1-0.2,0.2-0.4,0.4-0.4
			C60.6,277.5,61.4,277.5,62.2,277.9L62.2,277.9z M58.5,280c0.4,0.1,0.6,0.5,0.4,0.9c-0.1,0.2-0.2,0.4-0.4,0.4
			c-0.7,0.4-1.6,0.4-2.3,0c-0.4-0.1-0.6-0.5-0.4-0.9c0.1-0.2,0.2-0.4,0.4-0.4C57,279.6,57.8,279.6,58.5,280L58.5,280z M49.1,285.6
			c-0.7-0.3-0.8-0.9-0.2-1.3c0.7-0.4,1.5-0.5,2.3-0.1c0.7,0.3,0.8,0.9,0.2,1.3C50.7,285.8,49.8,285.9,49.1,285.6L49.1,285.6z
			 M52.7,283.5c-0.7-0.3-0.8-0.9-0.2-1.3c0.7-0.4,1.5-0.4,2.3-0.1c0.7,0.3,0.8,0.9,0.2,1.3C54.3,283.7,53.4,283.8,52.7,283.5
			L52.7,283.5z"/>
		<path class="st1" d="M92.1,263.8l-3.2,1.1l-7-4l1.9-1.9l-7-0.9c0,1.1-0.5,2-1.4,2.7l-38.6,22.3c-3.7,2.2-3.7,5.6,0,7.8l0,0
			c4.3,2.1,9.3,2.1,13.5,0L89,268.6l0,0c1.4-0.8,4.6-0.8,4.6-0.8L92.1,263.8z M73.2,269.9c0.4,0.1,0.6,0.5,0.4,0.9
			c-0.1,0.2-0.2,0.4-0.4,0.4c-0.7,0.4-1.6,0.4-2.3,0c-0.4-0.1-0.6-0.5-0.4-0.9c0.1-0.2,0.2-0.4,0.4-0.4
			C71.6,269.6,72.5,269.6,73.2,269.9z M69.5,272c0.4,0.1,0.6,0.5,0.4,0.9c-0.1,0.2-0.2,0.4-0.4,0.4c-0.7,0.4-1.6,0.4-2.3,0
			c-0.4-0.1-0.6-0.5-0.4-0.9c0.1-0.2,0.2-0.4,0.4-0.4C68,271.7,68.8,271.7,69.5,272L69.5,272z M65.9,274.1c0.4,0.1,0.6,0.5,0.4,0.9
			c-0.1,0.2-0.2,0.4-0.4,0.4c-0.7,0.4-1.6,0.4-2.3,0c-0.4-0.1-0.6-0.5-0.4-0.9c0.1-0.2,0.2-0.4,0.4-0.4
			C64.3,273.8,65.2,273.8,65.9,274.1L65.9,274.1z M62.3,276.2c0.4,0.1,0.6,0.5,0.4,0.9c-0.1,0.2-0.2,0.4-0.4,0.4
			c-0.7,0.4-1.6,0.4-2.3,0c-0.4-0.1-0.6-0.5-0.4-0.9c0.1-0.2,0.2-0.4,0.4-0.4C60.7,275.9,61.5,275.9,62.3,276.2L62.3,276.2z
			 M58.7,278.3c0.6,0.4,0.6,1,0,1.3c-0.7,0.4-1.6,0.4-2.3,0c-0.4-0.1-0.6-0.5-0.4-0.9c0.1-0.2,0.2-0.4,0.4-0.4
			C57.1,277.9,57.9,277.9,58.7,278.3z M49.2,283.9c-0.7-0.3-0.8-0.9-0.2-1.3c0.7-0.4,1.6-0.5,2.3-0.1c0.7,0.3,0.8,0.9,0.2,1.3
			C50.8,284.2,49.9,284.2,49.2,283.9L49.2,283.9z M52.8,281.8c-0.7-0.3-0.8-0.9-0.2-1.3c0.7-0.4,1.6-0.4,2.3-0.1s0.8,0.9,0.2,1.3
			C54.4,282.1,53.6,282.1,52.8,281.8L52.8,281.8z"/>
		<path class="st3" d="M92.1,262.4l-3.2,1.1l-7-4l1.9-1.9l-7.8-0.9c0,0,0.9,1.9-0.5,2.7l-38.7,22.3c-3.7,2.1-3.7,5.6,0,7.8l0,0
			c4.2,2.2,9.3,2.2,13.5,0L89,267.2l0,0c1.4-0.8,4.6-1,4.6-1L92.1,262.4z M73.2,268.5c0.4,0.1,0.6,0.5,0.4,0.9
			c-0.1,0.2-0.2,0.4-0.4,0.4c-0.7,0.4-1.6,0.4-2.3,0c-0.4-0.1-0.6-0.5-0.4-0.9c0.1-0.2,0.2-0.4,0.4-0.4
			C71.6,268.2,72.5,268.2,73.2,268.5L73.2,268.5z M69.5,270.6c0.4,0.1,0.6,0.5,0.4,0.9c-0.1,0.2-0.2,0.4-0.4,0.4
			c-0.7,0.4-1.6,0.4-2.3,0c-0.4-0.1-0.6-0.5-0.4-0.9c0.1-0.2,0.2-0.4,0.4-0.4C68,270.3,68.8,270.3,69.5,270.6L69.5,270.6z
			 M65.9,272.7c0.4,0.1,0.6,0.5,0.4,0.9c-0.1,0.2-0.2,0.4-0.4,0.4c-0.7,0.4-1.6,0.4-2.3,0c-0.4-0.1-0.6-0.5-0.4-0.9
			c0.1-0.2,0.2-0.4,0.4-0.4C64.3,272.4,65.2,272.4,65.9,272.7L65.9,272.7z M62.3,274.8c0.4,0.1,0.6,0.5,0.5,0.9
			c-0.1,0.2-0.2,0.4-0.5,0.5c-0.7,0.4-1.6,0.4-2.3,0c-0.4-0.1-0.6-0.5-0.4-0.9c0.1-0.2,0.2-0.4,0.4-0.4
			C60.7,274.5,61.5,274.5,62.3,274.8L62.3,274.8z M58.7,276.9c0.4,0.1,0.6,0.5,0.5,0.8s-0.3,0.5-0.5,0.5c-0.7,0.4-1.6,0.4-2.3,0
			c-0.4-0.1-0.6-0.5-0.4-0.9c0.1-0.2,0.2-0.4,0.4-0.4C57.1,276.6,57.9,276.6,58.7,276.9z M49.2,282.5c-0.7-0.3-0.8-0.9-0.2-1.3
			c0.7-0.4,1.5-0.5,2.3-0.1c0.7,0.3,0.8,0.9,0.2,1.3C50.8,282.8,49.9,282.9,49.2,282.5L49.2,282.5z M52.8,280.4
			c-0.7-0.3-0.8-0.9-0.2-1.3c0.7-0.4,1.6-0.5,2.3-0.1c0.7,0.3,0.8,0.9,0.2,1.3C54.4,280.7,53.5,280.8,52.8,280.4L52.8,280.4z"/>
		<path class="st6" d="M120,252.4L120,252.4l27.4-17.6c-0.1-1.8-0.4-3.5-0.8-5.3l0,0c-4.3-2.1-9.3-2.1-13.5,0l-26.6,15.3
			c-1.4,0.8-4.6,0.8-4.6,0.8l1.6,4l3.2-1.1l7,4l3.9,0.6v1.7C118.2,253.9,119,253.1,120,252.4z M136,239.4l-6.6-3.8
			c-0.4-0.1-0.6-0.6-0.5-1c0.1-0.2,0.3-0.4,0.5-0.5c0.8-0.4,1.7-0.4,2.5,0l6.6,3.8c0.4,0.1,0.6,0.6,0.5,1c-0.1,0.2-0.2,0.4-0.5,0.5
			C137.7,239.8,136.8,239.8,136,239.4L136,239.4z"/>
		<path class="st1" d="M120,250.7L120,250.7l26.6-15.4c3.7-2.2,3.7-5.6,0-7.8l0,0c-4.3-2.2-9.3-2.2-13.5,0l-26.6,15.4
			c-1.4,0.8-4.6,0.8-4.6,0.8l1.6,4l3.2-1.1l7,4l-1.9,1.9l5.9,0.8C118.2,252.3,119,251.4,120,250.7z M136,237.4l-6.6-3.8
			c-0.4-0.1-0.6-0.6-0.5-1c0.1-0.2,0.3-0.4,0.5-0.5c0.8-0.4,1.7-0.4,2.5,0l6.6,3.8c0.4,0.1,0.6,0.6,0.5,1c-0.1,0.2-0.3,0.4-0.5,0.5
			C137.8,237.8,136.8,237.8,136,237.4z"/>
		<path class="st3" d="M120,249.3L120,249.3l26.6-15.3c3.7-2.1,3.7-5.6,0-7.8l0,0c-4.3-2.2-9.3-2.2-13.5,0l-26.6,15.4
			c-1.4,0.8-4.6,0.8-4.6,0.8l1.6,4l3.2-1.1l7,4l-1.9,1.9l5.7,0.6C118.1,250.8,119,250,120,249.3z M136,236l-6.6-3.7
			c-0.4-0.1-0.6-0.6-0.5-1c0.1-0.2,0.3-0.4,0.5-0.5c0.8-0.4,1.7-0.4,2.5,0l6.6,3.8c0.4,0.1,0.6,0.6,0.5,1c-0.1,0.2-0.3,0.4-0.5,0.5
			C137.7,236.5,136.8,236.5,136,236L136,236z"/>
		<path class="st11" d="M88.7,264.9L78,258.7c-3.3-1.9-2.9-5.3,0.9-7.5l12.6-7.3c3.8-2.2,9.7-2.5,13-0.5l10.7,6.2
			c3.3,1.9,2.9,5.3-0.9,7.5l-12.6,7.2C97.9,266.6,92,266.8,88.7,264.9z"/>
		<path class="st7" d="M79.7,251.8l12.9-7.5c3.2-1.9,8.1-2.1,10.9-0.4l10.7,6.2c2.8,1.6,2.4,4.4-0.8,6.3l-12.9,7.5
			c-3.2,1.9-8.1,2.1-10.9,0.5L79,258.1C76.2,256.5,76.5,253.7,79.7,251.8z"/>
		
			<linearGradient id="SVGID_3_" gradientUnits="userSpaceOnUse" x1="-2415.4688" y1="3302.323" x2="-2393.1487" y2="3282.9929" gradientTransform="matrix(0.87 0.5 -1 0.58 5474.0498 -453.47)">
			<stop  offset="0.21" style="stop-color:#FFFFFF;stop-opacity:0"/>
			<stop  offset="1" style="stop-color:#FFFFFF;stop-opacity:0.2"/>
		</linearGradient>
		<path class="st14" d="M79.7,251.8l12.9-7.5c3.2-1.9,8.1-2.1,10.9-0.4l10.7,6.2c2.8,1.6,2.4,4.4-0.8,6.3l-12.9,7.5
			c-3.2,1.9-8.1,2.1-10.9,0.5L79,258.1C76.2,256.5,76.5,253.7,79.7,251.8z"/>
		<ellipse transform="matrix(0.5 -0.866 0.866 0.5 -167.8721 227.716)" class="st15" cx="113.3" cy="259.2" rx="2.6" ry="1.5"/>
		<polygon class="st15" points="114.5,257 115.5,257.5 114.3,258.2 		"/>
		<polygon class="st15" points="113,262 112,261.4 113.2,260.8 		"/>
		<ellipse transform="matrix(0.5 -0.866 0.866 0.5 -167.8644 228.7404)" class="st10" cx="114.2" cy="259.7" rx="2.6" ry="1.5"/>
	</g>
	<g id="Glasses">
		<path class="st6" d="M176.9,475l-14-13.1c-1.8-2.6-3.9-4.9-6.3-6.8c-1.1-0.9-2.2-1.7-3.4-2.5L135,440.5l-19.8-8.7
			c-1.2-0.6-2.5-1.1-3.8-1.5c-2.9-1-5.9-1.5-9-1.7l-18.8-6.2c-1.1-0.1-0.5,1.9,0.1,2.7l1.8,0.7c2.3,0.9,0.4,0.6,2.7,2.2l10.9,2.8
			c6.9-0.6,13.7,2,19.7,5.2l14.3,7.2l13.8,8.3c6.1,3.4,10.9,8.6,13.8,14.9l7.3,5.9c2.3,2.1,1,1.2,4.3,1.7l1.9,1.6
			C175.5,475.8,177.5,475.9,176.9,475z"/>
		<path class="st16" d="M137.5,447.3c1.1-1.7,2.6-3.2,4.4-4.2c3.7-2.6,8.5-2,8.5-2c3.5,0.4,7,1.4,10.1,3.1l0.3,0.2l4.8,2.7
			c1.3,0.7,2.5,1.5,3.7,2.3c0.8,0.5,1.6,1.1,2.3,1.7c3.5,2.8,2.5,8.2-0.6,12.5c-1.7,2.4-3.7,4.7-5.9,6.7c-3.9,3.4-9.2,4.6-14.2,3.1
			c-2.3-0.7-4.4-1.7-6.5-2.9c-1.9-1.1-3.7-2.4-5.4-3.8c-4.5-3.9-5.2-9.4-3.3-15.4C136.2,449.9,136.8,448.5,137.5,447.3z M95.9,422.1
			c2.7-4.2,7.4-7.3,11.3-6c0.9,0.3,1.7,0.6,2.5,0.9c1.3,0.5,2.5,1.1,3.7,1.7l4.6,2.4l0.3,0.2c2.9,1.5,5.4,3.7,7.3,6.3
			c0,0,2.8,3.5,1.8,7.5c-0.3,1.9-1.1,3.8-2.2,5.4c-0.9,1.1-2,2.2-3.2,3.1c-5.1,4.2-10.7,6-16.3,4.2c-2-0.6-4-1.5-5.8-2.5
			c-1.9-1.1-3.6-2.3-5.2-3.8c-3.3-3.1-4.3-7.9-2.7-12.1C93.1,426.9,94.3,424.4,95.9,422.1L95.9,422.1z"/>
		<path class="st7" d="M90.7,428.2l10.8-1c6.8-0.6,13.7,0.7,19.7,3.9l59.5,29.9l3.5-4.8l-66.6-29.4c-4-1.9-8.3-3-12.8-3.2l-21.1-1.2
			c-0.7-0.1-1.3,0.4-1.4,1.1c0,0.3,0,0.6,0.2,0.8l0.6,0.7C84.9,427.3,87.7,428.5,90.7,428.2z"/>
		<path class="st7" d="M167.6,471.4l-4.5-9.9c-2.9-6.3-7.7-11.5-13.8-14.9L95,414.1l3.1-4.6l57.5,38.2c3.8,2.4,7.1,5.6,9.7,9.3
			l12.3,18c0.4,0.6,0.1,1.4-0.5,1.8c-0.3,0.2-0.7,0.2-1,0.1l-1.1-0.2C171.8,476.3,169,474.3,167.6,471.4z"/>
		
			<linearGradient id="SVGID_4_" gradientUnits="userSpaceOnUse" x1="155.2447" y1="919.0402" x2="155.2447" y2="952.0362" gradientTransform="matrix(1 0 0 1 0 -480)">
			<stop  offset="1.000000e-02" style="stop-color:#FFFFFF"/>
			<stop  offset="0.88" style="stop-color:#FFFFFF;stop-opacity:0"/>
		</linearGradient>
		<path class="st17" d="M151.4,439.1c3.5,0.4,7,1.4,10.1,3.1l0.3,0.2l4.8,2.7c1.3,0.7,2.5,1.5,3.7,2.3c0.8,0.5,1.6,1.1,2.3,1.7
			c3.5,2.8,2.4,8.2-0.6,12.5c-1.7,2.4-3.7,4.7-5.9,6.7c-3.9,3.4-9.2,4.6-14.2,3.1c-2.3-0.7-4.4-1.7-6.5-2.8
			c-1.9-1.1-3.7-2.4-5.4-3.8c-4.5-3.9-5.2-9.4-3.3-15.5c0.4-1.4,0.9-2.7,1.7-4c1.1-1.7,2.6-3.2,4.4-4.2
			C146.5,438.5,151.4,439.1,151.4,439.1z"/>
		<path class="st7" d="M96.4,408.1l-2.6,4.1c-0.4,0.6-0.3,1.3,0.2,1.8c0.9,0.8,1.2,2.1,0.7,3.2l-4.3,9.1c-2.6,5.3-1.4,11.6,2.9,15.6
			l0,0c3.6,3.2,7.7,5.6,12.3,7.1l0,0c7.1,2.2,14.9,0.3,20.2-5l4.1-4.1c0.9-0.9,1.4-2.1,1.5-3.3c0.3-1.9,2-3.3,3.9-3
			c0.4,0.1,0.8,0.2,1.1,0.4l1,0.5l1,0.6c1.4,0.9,1.8,2.7,1,4.1c-0.3,0.5-0.8,0.9-1.3,1.1c-1.2,0.6-2.1,1.5-2.6,2.7l-2.3,5.2
			c-2.9,6.6-1.2,14.3,4.3,19l0,0c3.8,3.4,8.4,5.9,13.2,7.5l0,0c6.4,2.1,13.4,0.3,18.1-4.5l7.6-8c1-1,2.5-1.4,3.9-1
			c0.8,0.2,1.6,0,2.1-0.6l3.1-4.2c0.6-0.8,0.6-1.9-0.1-2.7c0,0-5-5.6-16.5-11.8l-4.8-2.6c-3.7-2.1-7.8-3.3-12-3.8l-3.7-0.4
			c-1-0.1-1.9-0.6-2.4-1.4c-0.4-0.5-0.8-1-1.4-1.3l-4.1-2.2l-4.1-2.2c-0.6-0.3-1.2-0.5-1.9-0.5c-1,0-1.9-0.5-2.5-1.2l-2-2.7
			c-2.3-3.1-5.3-5.7-8.8-7.4l-4.6-2.4c-11.1-6-17.6-6.7-17.6-6.7C97.9,406.9,96.9,407.3,96.4,408.1z M138.5,445.3
			c1.1-1.7,2.6-3.2,4.4-4.2c3.7-2.6,8.5-2,8.5-2c3.5,0.4,7,1.4,10.1,3.1l0.3,0.2l4.8,2.7c1.3,0.7,2.5,1.5,3.7,2.3
			c0.8,0.5,1.6,1.1,2.3,1.7c3.5,2.8,2.4,8.2-0.6,12.5c-1.7,2.4-3.7,4.7-5.9,6.7c-3.9,3.4-9.2,4.6-14.2,3.1c-2.3-0.7-4.4-1.7-6.5-2.8
			c-1.9-1.1-3.7-2.4-5.4-3.8c-4.5-3.9-5.2-9.4-3.3-15.5C137.2,447.9,137.8,446.6,138.5,445.3z M96.9,420.1c2.7-4.2,7.3-7.3,11.3-6
			c0.9,0.3,1.7,0.6,2.5,0.9c1.3,0.5,2.5,1.1,3.7,1.7l4.6,2.4l0.3,0.2c2.9,1.5,5.4,3.7,7.3,6.3c0,0,2.7,3.5,1.8,7.5
			c-0.3,1.9-1,3.8-2.2,5.4c-0.9,1.2-2,2.2-3.2,3.1c-5.1,4.2-10.7,6-16.3,4.2c-2-0.6-4-1.5-5.8-2.5c-1.9-1.1-3.6-2.3-5.2-3.8
			c-3.3-3.1-4.3-7.9-2.7-12.1C94.1,424.9,95.3,422.4,96.9,420.1z"/>
		<path class="st18" d="M122.7,442.3c-5.1,4.2-10.6,6-16.3,4.2c-2-0.6-4-1.5-5.8-2.5c-1.9-1.1-3.6-2.3-5.2-3.8
			c-3.4-3.2-4.4-8-2.7-12.2c1-2.6,2.3-5,3.8-7.3l0.1-0.1c-1.4,2.1-2.5,4.4-3.5,6.8c-1.7,4.2-0.6,9,2.7,12.1c1.6,1.5,3.4,2.8,5.2,3.8
			c1.8,1,3.8,1.9,5.8,2.5c5.6,1.8,11.2,0,16.3-4.2c1.2-0.9,2.2-1.9,3.1-3c-0.1,0.2-0.2,0.4-0.4,0.6
			C124.9,440.4,123.8,441.4,122.7,442.3z"/>
		<path class="st18" d="M165.8,469c-3.9,3.4-9.2,4.6-14.1,3.1c-2.3-0.7-4.4-1.7-6.5-2.9c-1.9-1.1-3.7-2.4-5.4-3.8
			c-4.5-3.9-5.2-9.4-3.3-15.4c0.4-1.4,0.9-2.7,1.6-4c0.1-0.2,0.3-0.4,0.4-0.6c-0.7,1.2-1.2,2.6-1.6,3.9c-1.9,6.1-1.1,11.5,3.3,15.5
			c1.7,1.5,3.5,2.7,5.4,3.8c2.1,1.2,4.2,2.1,6.5,2.8c4.9,1.5,10.3,0.3,14.1-3.1c2-1.8,3.8-3.9,5.4-6.1c0,0,0,0.1-0.1,0.1
			C169.9,464.7,167.9,467,165.8,469z"/>
		
			<linearGradient id="SVGID_5_" gradientUnits="userSpaceOnUse" x1="110.5782" y1="893.8065" x2="110.5782" y2="926.5064" gradientTransform="matrix(1 0 0 1 0 -480)">
			<stop  offset="1.000000e-02" style="stop-color:#FFFFFF"/>
			<stop  offset="0.88" style="stop-color:#FFFFFF;stop-opacity:0"/>
		</linearGradient>
		<path class="st19" d="M126.7,425.6c-2-2.6-4.5-4.8-7.3-6.3l-0.3-0.2l-4.6-2.4c-1.2-0.6-2.5-1.2-3.7-1.7c-0.8-0.3-1.7-0.6-2.5-0.9
			c-4-1.3-8.6,1.9-11.3,6c-1.5,2.3-2.8,4.7-3.8,7.3c-1.7,4.2-0.6,9,2.7,12.1c1.6,1.5,3.4,2.8,5.2,3.9c1.8,1,3.8,1.9,5.8,2.5
			c5.6,1.8,11.2,0,16.3-4.2c1.2-0.9,2.2-1.9,3.2-3.1c1.2-1.6,1.9-3.4,2.2-5.4C129.4,429.1,126.7,425.6,126.7,425.6z"/>
	</g>
</g>
</svg>
